<?xml version="1.0" encoding="UTF-8"?>
<svg width="22px" height="16px" viewBox="0 0 22 16" version="1.1" xmlns="http://www.w3.org/2000/svg" xmlns:xlink="http://www.w3.org/1999/xlink">
    <!-- Generator: Sketch 52.4 (67378) - http://www.bohemiancoding.com/sketch -->
    <title>US</title>
    <desc>Created with Sketch.</desc>
    <defs>
        <rect id="path-1" x="0" y="0" width="22" height="16" rx="2.0952381"></rect>
        <rect id="path-3" x="0" y="0" width="9.42857143" height="7.46666667"></rect>
        <filter x="-5.3%" y="-6.7%" width="110.6%" height="113.4%" filterUnits="objectBoundingBox" id="filter-4">
            <feMorphology radius="1" operator="erode" in="SourceAlpha" result="shadowSpreadInner1"></feMorphology>
            <feOffset dx="0" dy="0" in="shadowSpreadInner1" result="shadowOffsetInner1"></feOffset>
            <feComposite in="shadowOffsetInner1" in2="SourceAlpha" operator="arithmetic" k2="-1" k3="1" result="shadowInnerInner1"></feComposite>
            <feColorMatrix values="0 0 0 0 0   0 0 0 0 0   0 0 0 0 0  0 0 0 0.2 0" type="matrix" in="shadowInnerInner1"></feColorMatrix>
        </filter>
        <rect id="path-5" x="0.523809524" y="0.533333333" width="20.952381" height="14.9333333" rx="1.04761905"></rect>
    </defs>
    <g id="首页" stroke="none" stroke-width="1" fill="none" fill-rule="evenodd">
        <g id="状态1" transform="translate(-1228.000000, -52.000000)">
            <g id="US" transform="translate(1228.000000, 52.000000)">
                <mask id="mask-2" fill="white">
                    <use xlink:href="#path-1"></use>
                </mask>
                <use id="background" fill="#FFFFFF" xlink:href="#path-1"></use>
                <g id="rectangle" mask="url(#mask-2)">
                    <use fill="#435DB0" fill-rule="evenodd" xlink:href="#path-3"></use>
                    <use fill="black" fill-opacity="1" filter="url(#filter-4)" xlink:href="#path-3"></use>
                </g>
                <path d="M1.04761905,1.06666667 L1.04761905,2.13333333 L2.0952381,2.13333333 L2.0952381,1.06666667 L1.04761905,1.06666667 L1.04761905,1.06666667 Z M3.14285714,1.06666667 L3.14285714,2.13333333 L4.19047619,2.13333333 L4.19047619,1.06666667 L3.14285714,1.06666667 L3.14285714,1.06666667 Z M5.23809524,1.06666667 L5.23809524,2.13333333 L6.28571429,2.13333333 L6.28571429,1.06666667 L5.23809524,1.06666667 L5.23809524,1.06666667 Z M7.33333333,1.06666667 L7.33333333,2.13333333 L8.38095238,2.13333333 L8.38095238,1.06666667 L7.33333333,1.06666667 L7.33333333,1.06666667 Z M6.28571429,2.13333333 L6.28571429,3.2 L7.33333333,3.2 L7.33333333,2.13333333 L6.28571429,2.13333333 L6.28571429,2.13333333 Z M4.19047619,2.13333333 L4.19047619,3.2 L5.23809524,3.2 L5.23809524,2.13333333 L4.19047619,2.13333333 L4.19047619,2.13333333 Z M2.0952381,2.13333333 L2.0952381,3.2 L3.14285714,3.2 L3.14285714,2.13333333 L2.0952381,2.13333333 L2.0952381,2.13333333 Z M1.04761905,3.2 L1.04761905,4.26666667 L2.0952381,4.26666667 L2.0952381,3.2 L1.04761905,3.2 L1.04761905,3.2 Z M3.14285714,3.2 L3.14285714,4.26666667 L4.19047619,4.26666667 L4.19047619,3.2 L3.14285714,3.2 L3.14285714,3.2 Z M5.23809524,3.2 L5.23809524,4.26666667 L6.28571429,4.26666667 L6.28571429,3.2 L5.23809524,3.2 L5.23809524,3.2 Z M7.33333333,3.2 L7.33333333,4.26666667 L8.38095238,4.26666667 L8.38095238,3.2 L7.33333333,3.2 L7.33333333,3.2 Z M1.04761905,5.33333333 L1.04761905,6.4 L2.0952381,6.4 L2.0952381,5.33333333 L1.04761905,5.33333333 L1.04761905,5.33333333 Z M3.14285714,5.33333333 L3.14285714,6.4 L4.19047619,6.4 L4.19047619,5.33333333 L3.14285714,5.33333333 L3.14285714,5.33333333 Z M5.23809524,5.33333333 L5.23809524,6.4 L6.28571429,6.4 L6.28571429,5.33333333 L5.23809524,5.33333333 L5.23809524,5.33333333 Z M7.33333333,5.33333333 L7.33333333,6.4 L8.38095238,6.4 L8.38095238,5.33333333 L7.33333333,5.33333333 L7.33333333,5.33333333 Z M6.28571429,4.26666667 L6.28571429,5.33333333 L7.33333333,5.33333333 L7.33333333,4.26666667 L6.28571429,4.26666667 L6.28571429,4.26666667 Z M4.19047619,4.26666667 L4.19047619,5.33333333 L5.23809524,5.33333333 L5.23809524,4.26666667 L4.19047619,4.26666667 L4.19047619,4.26666667 Z M2.0952381,4.26666667 L2.0952381,5.33333333 L3.14285714,5.33333333 L3.14285714,4.26666667 L2.0952381,4.26666667 L2.0952381,4.26666667 Z" id="stars" fill="#A7B6E6" mask="url(#mask-2)"></path>
                <path d="M9.42857143,0 L9.42857143,1.06666667 L22,1.06666667 L22,0 L9.42857143,0 L9.42857143,0 Z M9.42857143,2.13333333 L9.42857143,3.2 L22,3.2 L22,2.13333333 L9.42857143,2.13333333 L9.42857143,2.13333333 Z M9.42857143,4.26666667 L9.42857143,5.33333333 L22,5.33333333 L22,4.26666667 L9.42857143,4.26666667 L9.42857143,4.26666667 Z M9.42857143,6.4 L9.42857143,7.46666667 L22,7.46666667 L22,6.4 L9.42857143,6.4 L9.42857143,6.4 Z M0,8.53333333 L0,9.6 L22,9.6 L22,8.53333333 L0,8.53333333 L0,8.53333333 Z M0,10.6666667 L0,11.7333333 L22,11.7333333 L22,10.6666667 L0,10.6666667 L0,10.6666667 Z M0,12.8 L0,13.8666667 L22,13.8666667 L22,12.8 L0,12.8 L0,12.8 Z M0,14.9333333 L0,16 L22,16 L22,14.9333333 L0,14.9333333 L0,14.9333333 Z" id="stripe" fill="#ED4C49" mask="url(#mask-2)"></path>
                <mask id="mask-6" fill="white">
                    <use xlink:href="#path-5"></use>
                </mask>
                <use id="overlay" stroke-opacity="0.156646286" stroke="#2F343A" stroke-width="1.04761905" xlink:href="#path-5"></use>
            </g>
        </g>
    </g>
</svg>